<?xml version="1.0"?>
<svg xmlns:rdf="http://www.w3.org/1999/02/22-rdf-syntax-ns#" xmlns="http://www.w3.org/2000/svg" xmlns:cc="http://creativecommons.org/ns#" xmlns:dc="http://purl.org/dc/elements/1.1/" xmlns:svg="http://www.w3.org/2000/svg" id="svg2325" viewBox="0 0 200 200" version="1.0">
  <g id="layer1">
    <g id="g2574" transform="translate(-245.71 -140)">
      <path id="path2519" fill-opacity=".39216" transform="matrix(1.0767 0 0 .82956 20.41 -178.54)" d="m367.86 604.51a61.429 13.571 0 1 1 -122.86 0 61.429 13.571 0 1 1 122.86 0z"/>
      <path id="path2521" stroke-linejoin="round" d="m424.39 251.52c0 46.15-36.69 75.12-74.98 75.12s-68.67-19.94-68.67-66.09 31.08-83.61 69.37-83.61 74.28 28.42 74.28 74.58z" stroke="#000" stroke-linecap="round" stroke-width="2.5" fill="#fff"/>
      <path id="path2523" stroke-linejoin="round" d="m328.39 232.33c-3.05 18.57-20.15 34.19-31.73 32.51-11.59-1.69-16.65-16.26-15.21-32.51 1.44-16.26 13.12-29.45 26.08-29.45 12.95 0 23.9 10.91 20.86 29.45z" stroke="#000" stroke-linecap="round" stroke-width="2.5" fill="#fff"/>
      <path id="path2525" stroke-linejoin="round" d="m333.17 230.7c2.58 20.63 18.35 34.41 31.56 32.53 13.2-1.87 24.66-17.18 20.91-34.67-3.59-16.81-11.91-24.83-26.71-26.99-14.11-2.06-28.32 8.55-25.76 29.13z" stroke="#000" stroke-linecap="round" stroke-width="2.5" fill="#fff"/>
      <path id="path2527" stroke-linejoin="round" d="m307.56 285.95c6.82 9.07 18.8 12.37 37.08 11.59 12.32-0.53 21.39-4.37 26.37-12.86-8.96 3.45-18.94 5.63-29.54 6.08-12.17 0.52-23.69-1.27-33.91-4.81z" stroke="#000" stroke-linecap="round" stroke-width="2.5" fill="none"/>
      <path id="path2529" stroke-linejoin="round" d="m358.57 757.01a5.3571 4.6429 0 1 1 -10.71 0 5.3571 4.6429 0 1 1 10.71 0z" transform="matrix(.57819 0 0 .63636 150.92 -249.44)" stroke="#000" stroke-linecap="round" stroke-width="4.1215"/>
      <path id="path2531" stroke-linejoin="round" d="m358.57 757.01a5.3571 4.6429 0 1 1 -10.71 0 5.3571 4.6429 0 1 1 10.71 0z" transform="matrix(.57819 0 0 .63636 108.06 -248.37)" stroke="#000" stroke-linecap="round" stroke-width="4.1215"/>
      <path id="path2543" fill-rule="evenodd" stroke="#000" stroke-width="2.5" d="m312.83 166.48l-6.94 30.18c7.15-5.29 22.72-1.89 25.66 2.37 13.13-13.32 42.44-17.06 63.11-6.86l-12.75-31.13-69.08 5.44z"/>
      <path id="rect2536" stroke-linejoin="round" d="m311.27 147.06l126.1 1.78-27.81 31.47-155.51-3.87 57.22-29.38z" fill-rule="evenodd" stroke="#000" stroke-linecap="round" stroke-width="2.5"/>
      <path id="path2545" stroke-linejoin="round" d="m352.24 159.37c-2.06-10.26 53.21-8.73 66.96 1.13 13.29 9.53 2.66 22.14 7.51 32.8" stroke="#fff" stroke-linecap="round" stroke-width="2.5" fill="none"/>
      <path id="path2547" stroke-linejoin="round" d="m425.14 165.66l-6.79 28.82c-1.2 8.48 15.82 6.88 14.94-1.02l-8.15-27.8z" fill-rule="evenodd" stroke="#000" stroke-linecap="round" stroke-width="2.5"/>
    </g>
  </g>
  <metadata>
    <rdf:RDF>
      <cc:Work>
        <dc:format>image/svg+xml</dc:format>
        <dc:type rdf:resource="http://purl.org/dc/dcmitype/StillImage"/>
        <cc:license rdf:resource="http://creativecommons.org/licenses/publicdomain/"/>
        <dc:publisher>
          <cc:Agent rdf:about="http://openclipart.org/">
            <dc:title>Openclipart</dc:title>
          </cc:Agent>
        </dc:publisher>
        <dc:title>Buddy graduate</dc:title>
        <dc:date>2008-07-18T20:30:42</dc:date>
        <dc:description>cartoon, cartoon, clip art, clipart, education, education, graduate, graduate, image, media, public domain, school, school, smiley, smiley, svg, </dc:description>
        <dc:source>http://openclipart.org/detail/17946/buddy-graduate-by-aj</dc:source>
        <dc:creator>
          <cc:Agent>
            <dc:title>AJ</dc:title>
          </cc:Agent>
        </dc:creator>
        <dc:subject>
          <rdf:Bag>
            <rdf:li>cartoon</rdf:li>
            <rdf:li>clip art</rdf:li>
            <rdf:li>clipart</rdf:li>
            <rdf:li>education</rdf:li>
            <rdf:li>graduate</rdf:li>
            <rdf:li>image</rdf:li>
            <rdf:li>media</rdf:li>
            <rdf:li>public domain</rdf:li>
            <rdf:li>school</rdf:li>
            <rdf:li>smiley</rdf:li>
            <rdf:li>svg</rdf:li>
          </rdf:Bag>
        </dc:subject>
      </cc:Work>
      <cc:License rdf:about="http://creativecommons.org/licenses/publicdomain/">
        <cc:permits rdf:resource="http://creativecommons.org/ns#Reproduction"/>
        <cc:permits rdf:resource="http://creativecommons.org/ns#Distribution"/>
        <cc:permits rdf:resource="http://creativecommons.org/ns#DerivativeWorks"/>
      </cc:License>
    </rdf:RDF>
  </metadata>
</svg>
